<svg width="512" height="512" viewBox="0 0 512 512" fill="none" xmlns="http://www.w3.org/2000/svg">
<path d="M376 0H136C111.187 0 91 20.187 91 45V467C91 491.813 111.187 512 136 512H376C400.813 512 421 491.813 421 467V45C421 20.187 400.813 0 376 0ZM391 467C391 475.271 384.271 482 376 482H136C127.729 482 121 475.271 121 467V392.18H391V467ZM121 362.18V45C121 36.729 127.729 30 136 30H376C384.271 30 391 36.729 391 45V362.18H121Z" fill="white"/>
<path d="M241 422.117H271V452.117H241V422.117Z" fill="white"/>
<path d="M316.993 156.31L338.732 134.571L317.519 113.358L295.78 135.097C288.345 130.231 279.978 126.679 271 124.793V94.09H241V124.793C232.023 126.68 223.656 130.231 216.22 135.097L194.481 113.358L173.268 134.571L195.007 156.31C190.141 163.745 186.589 172.112 184.703 181.089H154V211.089H184.703C186.59 220.066 190.141 228.433 195.007 235.868L173.268 257.607L194.481 278.82L216.22 257.081C223.655 261.947 232.022 265.499 241 267.385V298.088H271V267.385C279.978 265.498 288.344 261.946 295.78 257.081L317.519 278.82L338.732 257.607L316.993 235.868C321.859 228.433 325.411 220.066 327.298 211.088H358V181.088H327.297C325.41 172.112 321.859 163.745 316.993 156.31V156.31ZM256 238.947C232.369 238.947 213.143 219.721 213.143 196.09C213.143 172.459 232.369 153.233 256 153.233C279.632 153.233 298.857 172.459 298.857 196.09C298.857 219.721 279.632 238.947 256 238.947V238.947Z" fill="white"/>
</svg>
