<svg width="512" height="512" viewBox="0 0 512 512" fill="none" xmlns="http://www.w3.org/2000/svg">
<path d="M325.824 317.208L312 313.76V313.752L280 305.752L264 301.752L248 297.752V278.68C297.888 270.896 336 227.216 336 176C336 118.656 289.344 72 232 72C174.656 72 128 118.656 128 176C128 186.536 129.664 196.736 132.616 206.416C109.4 222.888 81.304 232 52.776 232H32C18.768 232 8 242.768 8 256V272C8 285.232 18.768 296 32 296H42.456L64 353.456V392H32C18.768 392 8 402.768 8 416V448C8 461.232 18.768 472 32 472H44.688L71.032 498.352C74.688 501.992 79.528 504 84.68 504C95.336 504 104 495.336 104 484.68V472H128C141.232 472 152 461.232 152 448V416C152 402.768 141.232 392 128 392H80V360H96V303.064C111.512 308.184 126.136 315.96 139 326.248L152 336.64V242.376C164.336 257.256 180.8 268.712 200 274.904V329.88C192.312 323.592 182.824 320 172.256 320C166.832 320 161.752 322.112 157.92 325.944C154.088 329.784 151.984 334.896 152 340.944C152 344.176 152.768 347.424 154.208 350.312L163.768 369.448C166.536 374.968 168 381.152 168 387.328V416C168 464.52 207.48 504 256 504C304.52 504 344 464.52 344 416V340.496C344 329.464 336.52 319.88 325.824 317.208V317.208ZM56 280.12C54.92 280.096 53.856 280 52.776 280H32C27.584 280 24 276.416 24 272V256C24 251.584 27.584 248 32 248H52.776C53.848 248 54.92 247.904 56 247.88V280.12ZM128 408C132.416 408 136 411.584 136 416V448C136 452.416 132.416 456 128 456H88V484.68C88 487.392 84.256 488.92 82.336 487.032L51.312 456H32C27.584 456 24 452.416 24 448V416C24 411.584 27.584 408 32 408H128ZM80 344H77.544L59.656 296.296C66.512 296.64 73.304 297.496 80 298.848V344ZM136 304.432C116.688 292.056 94.736 284.184 72 281.296V246.712C94.72 243.824 116.704 235.944 136 223.576V304.432ZM246.528 216C243.216 206.712 234.416 200 224 200C215 200 207.232 205.04 203.128 212.392C201.528 203.408 200.576 193.824 200.216 184H263.784C263.384 195.168 262.144 205.984 260.136 216H246.528ZM248 262.528V232H299.568C286.68 247.528 268.64 258.704 248 262.528V262.528ZM310.248 216H276.456C278.312 205.872 279.408 195.056 279.784 184H319.616C318.56 195.384 315.304 206.2 310.248 216V216ZM310.288 136C315.296 145.768 318.56 156.56 319.6 168H279.832C279.464 156.648 278.36 145.896 276.56 136H310.288ZM299.832 120H272.848C269.904 109.64 266.152 100.624 261.72 93.272C276.704 98.68 289.856 107.944 299.832 120V120ZM232 88C240.6 88 249.76 100.216 256.072 120H207.92C214.24 100.216 223.4 88 232 88ZM260.152 136C262.104 145.672 263.416 156.424 263.832 168H200.168C200.584 156.424 201.904 145.672 203.848 136H260.152ZM202.288 93.272C197.864 100.624 194.104 109.64 191.16 120H164.176C174.144 107.944 187.296 98.68 202.288 93.272V93.272ZM153.712 136H187.44C185.64 145.896 184.536 156.648 184.168 168H144.4C145.44 156.56 148.704 145.768 153.712 136V136ZM153.664 216C148.656 206.184 145.416 195.376 144.384 184H184.224C184.6 195.056 185.696 205.872 187.552 216H153.664ZM164.168 232H200V257.928C185.784 252.392 173.552 243.376 164.168 232V232ZM328 416C328 455.704 295.704 488 256 488C216.296 488 184 455.704 184 416V387.328C184 378.68 181.952 370.016 178.088 362.288L168.528 343.152C168.176 342.48 168 341.712 168 340.304C168 339.136 168.448 338.056 169.248 337.24C170.056 336.448 171.12 336 172.84 336C180.096 336 186.92 338.832 192.048 343.952C197.176 349.08 200 355.88 200 363.12V376V400H216V376V363.12V224C216 219.584 219.584 216 224 216C228.416 216 232 219.584 232 224V293.752V400H248V314.248L264 318.248V400H280V322.248L296 326.248V400H312V330.24L321.936 332.728C325.504 333.624 328 336.816 328 340.496V416Z" fill="white"/>
<path d="M500.44 153.984C497.184 134.4 481.912 118.616 462.424 114.728C460.112 114.264 458.288 112.776 457.16 110.84C465.232 104.24 470.608 94.64 471.624 83.688L477.76 77.552C484.368 70.944 488 62.168 488 52.84C488 28.12 467.88 8 443.16 8H420.848C396.12 8 376 28.12 376 52.84C376 62.168 379.632 70.944 386.232 77.544L392.368 83.68C393.392 94.632 398.76 104.232 406.832 110.832C405.712 112.768 403.88 114.256 401.56 114.72C382.08 118.608 366.808 134.392 363.552 153.976L358.552 184H505.44L500.44 153.984ZM399.032 53.656C396.856 55.832 395.176 58.376 393.984 61.128C392.728 58.568 392 55.776 392 52.84C392 36.936 404.936 24 420.84 24H443.152C459.064 24 472 36.936 472 52.84C472 55.768 471.272 58.56 470.016 61.12C468.832 58.368 467.152 55.832 464.968 53.648L453.656 42.336L442.344 53.648L453.656 64.96C455.152 66.464 456 68.52 456 70.624V80C456 93.232 445.232 104 432 104C418.768 104 408 93.232 408 80V70.624C408 68.52 408.848 66.456 410.344 64.968L416 59.312L426.344 69.656L437.656 58.344L416 36.688L399.032 53.656ZM445.224 121.744L437.784 132.904C435.208 136.776 428.8 136.776 426.224 132.904L418.784 121.744C419.64 120.664 420.392 119.504 421.056 118.28C424.552 119.288 428.176 120 432 120C435.824 120 439.448 119.288 442.952 118.288C443.608 119.504 444.36 120.664 445.224 121.744ZM377.448 168L379.344 156.608C381.52 143.536 391.712 133.016 404.704 130.416C404.888 130.376 405.048 130.304 405.224 130.264L412.904 141.784C417.176 148.176 424.312 152 432 152C439.688 152 446.824 148.176 451.096 141.784L458.776 130.264C458.952 130.304 459.112 130.376 459.296 130.416C472.296 133.016 482.48 143.544 484.664 156.608L486.552 168H377.448Z" fill="white"/>
<path d="M498.192 396.368L467.632 365.808L457.448 370.576L453.608 360H410.392L406.56 370.568L396.376 365.8L365.816 396.36L370.584 406.544L360 410.392V453.608L370.568 457.44L365.8 467.624L396.36 498.184L406.544 493.416L410.392 504H453.608L457.44 493.432L467.624 498.2L498.184 467.64L493.416 457.456L504 453.608V410.392L493.432 406.56L498.192 396.368ZM488 442.392L481.416 444.792L477.88 446.408L474.464 454.656L478.952 464.24L464.248 478.944L454.664 474.456L446.024 478.024L442.392 488H421.608L419.208 481.416L417.592 477.88L409.344 474.464L399.76 478.952L385.056 464.248L389.544 454.664L385.976 446.024L376 442.392V421.608L382.584 419.208L386.12 417.592L389.536 409.344L385.048 399.76L399.752 385.056L409.336 389.544L417.976 385.976L421.608 376H442.392L444.792 382.584L446.408 386.12L454.656 389.536L464.24 385.048L478.944 399.752L474.456 409.336L478.024 417.976L488 421.608V442.392Z" fill="white"/>
<path d="M432 392C409.944 392 392 409.944 392 432C392 454.056 409.944 472 432 472C454.056 472 472 454.056 472 432C472 409.944 454.056 392 432 392ZM432 456C418.768 456 408 445.232 408 432C408 418.768 418.768 408 432 408C445.232 408 456 418.768 456 432C456 445.232 445.232 456 432 456Z" fill="white"/>
<path d="M40 40H88V56H40V40Z" fill="white"/>
<path d="M40 72H88V88H40V72Z" fill="white"/>
<path d="M40 104H88V120H40V104Z" fill="white"/>
<path d="M104 424H120V440H104V424Z" fill="white"/>
<path d="M40 424H56V440H40V424Z" fill="white"/>
<path d="M72 424H88V440H72V424Z" fill="white"/>
<path d="M56 216H72V152H120V8H8V152H56V216ZM24 136V24H104V136H24Z" fill="white"/>
<path d="M424 200H440V248H424V200Z" fill="white"/>
<path d="M424 264H440V280H424V264Z" fill="white"/>
<path d="M424 296H440V344H424V296Z" fill="white"/>
</svg>
