<svg width="512" height="512" viewBox="0 0 512 512" fill="none" xmlns="http://www.w3.org/2000/svg">
<g clip-path="url(#clip0)">
<path d="M12.5609 319.07C15.3672 321.023 18.333 322.735 21.427 324.19C25.1134 326.076 31.2916 329.233 31.7268 331.443C32.2636 334.36 31.9129 337.372 30.7198 340.087C29.4484 342.818 28.1172 345.165 26.9652 347.187C23.842 352.708 18.611 361.958 26.4958 368.401C28.339 370.108 31.522 372.574 34.4233 374.801C32.2874 378.536 31.3213 382.825 31.65 387.115C32.101 390.491 33.9336 393.529 36.7102 395.503C38.6046 396.843 40.627 398.003 42.6238 399.138C47.667 402.014 49.6382 403.354 50.3038 406.025C50.7779 409.459 50.4865 412.956 49.4505 416.265C48.947 418.543 48.4606 420.83 48.1705 423.091C47.3231 430.868 48.2839 438.736 50.978 446.08C54.8155 459.635 67.0747 469.08 81.1604 469.333C83.5121 469.326 85.8569 469.078 88.1577 468.591C112.536 462.812 136.557 455.624 160.102 447.061C179.328 458.342 191.471 492.646 194.637 505.523C195.582 509.33 199 512.002 202.923 512L417.109 511.403C419.824 511.397 422.374 510.101 423.977 507.911C425.581 505.721 426.047 502.899 425.233 500.309C423.123 494.528 420.213 489.07 416.589 484.096C414.542 481.146 412.698 478.061 411.068 474.863C407.205 467.047 403.983 458.931 401.433 450.594C396.626 434.283 393.274 417.577 391.415 400.674C391.136 397.572 389.188 394.869 386.334 393.621C383.48 392.374 380.173 392.781 377.706 394.682C375.24 396.584 374.005 399.679 374.485 402.756C376.459 420.672 380.02 438.377 385.126 455.663C387.934 464.836 391.476 473.768 395.716 482.372C397.663 486.237 399.873 489.963 402.329 493.525L402.901 494.379L209.374 494.933C203.709 474.691 193.427 456.038 179.336 440.439L187.016 437.751C192.734 435.755 197.043 434.253 199.253 433.545C235.81 421.982 254.088 405.333 253.593 384.051C253.6 381.777 252.675 379.6 251.034 378.026C249.393 376.452 247.178 375.62 244.907 375.723C240.196 375.834 236.468 379.742 236.578 384.452C236.783 393.233 229.589 406.042 194.116 417.263C191.804 418.005 187.349 419.558 181.436 421.623C175.095 423.842 167.031 426.658 158.14 429.679H158.08C134.065 438.482 109.562 445.89 84.6932 451.866C76.7356 453.399 68.9859 448.38 67.1316 440.491C65.3085 435.636 64.6225 430.428 65.1262 425.267C65.3481 423.475 65.7577 421.7 66.1502 419.917C67.889 414.014 68.144 407.774 66.8926 401.749C64.4023 393.922 58.6402 387.559 51.0974 384.307L49.3225 383.292C50.2439 381.431 51.3442 379.665 52.6078 378.018C54.0394 376.204 54.6741 373.887 54.3669 371.597C54.0597 369.307 52.8369 367.239 50.978 365.867C48.93 364.365 44.1001 360.747 40.5673 357.897C40.9769 357.154 41.4206 356.335 41.8473 355.593C43.187 353.246 44.7145 350.515 46.2078 347.358C48.9082 341.376 49.7036 334.709 48.4862 328.26C46.4382 317.85 36.4713 312.747 29.1924 309.026C26.7447 307.868 24.3983 306.506 22.178 304.956C20.3482 303.726 18.6344 302.332 17.058 300.791C17.058 299.503 18.4404 296.38 24.9428 288.452C40.2246 268.786 53.3208 247.515 63.9998 225.015C66.0146 221.489 67.1476 217.528 67.3022 213.47C66.4208 204.893 61.8754 197.115 54.835 192.137C51.379 188.971 48.1278 185.984 47.7524 183.228C47.8094 181.205 48.2616 179.214 49.0836 177.365C50.4745 173.705 52.0788 170.121 53.6916 166.528C57.1907 159.313 59.9855 151.777 62.0372 144.026L62.8905 140.39C64.7001 131.859 67.0313 123.446 69.8708 115.2C76.5976 96.6336 87.0125 79.6208 100.488 65.1861C116.813 47.9147 142.506 35.6949 176.981 28.8427C203.351 23.0537 230.109 19.1977 257.041 17.3056C270.473 16.5784 283.944 17.3425 297.207 19.584C301.792 20.2712 306.087 17.1722 306.88 12.6045C307.673 8.03684 304.674 3.67163 300.126 2.77332C285.607 0.305908 270.859 -0.535554 256.153 0.264523C228.387 2.1904 200.798 6.1491 173.61 12.1088C135.134 19.7888 107.17 33.28 88.0809 53.4528C73.0231 69.5652 61.3805 88.5573 53.8537 109.286C50.7806 118.206 48.2557 127.305 46.2932 136.533L45.4398 140.134C43.6186 146.827 41.1759 153.335 38.1438 159.573C36.4372 163.465 34.6622 167.356 33.1348 171.383C31.1701 175.87 30.3914 180.786 30.8734 185.66C32.5954 193.3 37.0122 200.065 43.315 204.715C47.4878 208.546 50.227 211.243 50.2612 213.589C49.9523 214.889 49.461 216.139 48.802 217.301C38.579 238.839 26.0469 259.202 11.426 278.033C5.25636 285.551 -1.20338 294.315 0.170489 303.078C1.97792 309.86 6.44528 315.626 12.5609 319.07Z" fill="white"/>
<path d="M95.2914 151.834L96.1448 148.036C97.6404 140.942 99.5408 133.939 101.836 127.061C106.976 112.815 114.94 99.7537 125.252 88.6613C136.311 78.2336 149.848 70.7999 164.582 67.0635C167.557 66.2252 169.846 63.8438 170.566 60.8382C171.286 57.8326 170.325 54.6725 168.053 52.5771C165.781 50.4818 162.553 49.7787 159.616 50.7392C142.032 55.3088 125.923 64.3346 112.844 76.9451C100.961 89.7198 91.7803 104.763 85.8536 121.173C83.2933 128.748 81.1819 136.467 79.5304 144.29L78.677 147.985C77.6121 152.573 80.465 157.156 85.0514 158.225C85.6863 158.374 86.3364 158.449 86.9885 158.447C90.9573 158.442 94.3984 155.701 95.2914 151.834Z" fill="white"/>
<path d="M76.7999 187.733C81.5128 187.733 85.3333 183.913 85.3333 179.2C85.3333 174.487 81.5128 170.667 76.7999 170.667C72.0871 170.667 68.2666 174.487 68.2666 179.2C68.2666 183.913 72.0871 187.733 76.7999 187.733Z" fill="white"/>
<path d="M230.4 172.459C229.815 201.55 240.096 229.815 259.234 251.733C265.258 257.992 271.826 263.704 278.86 268.8C291.345 278.451 303.172 287.676 306.312 300.51C296.563 304.368 290.152 313.782 290.133 324.267V341.333C290.178 352.143 297.008 361.76 307.2 365.363V366.933C307.2 385.785 322.482 401.067 341.333 401.067C360.184 401.067 375.466 385.785 375.466 366.933V365.363C385.658 361.76 392.488 352.143 392.533 341.333V324.267C392.508 313.773 386.082 304.357 376.32 300.51C379.451 287.71 391.287 278.451 403.771 268.8C410.804 263.701 417.372 257.99 423.398 251.733C442.543 229.817 452.836 201.554 452.266 172.459C452.028 110.996 402.784 60.9562 341.333 59.7333C279.882 60.9562 230.638 110.996 230.4 172.459ZM315.733 187.733H307.2C302.487 187.733 298.666 183.913 298.666 179.2C298.666 174.487 302.487 170.667 307.2 170.667C311.912 170.667 315.733 174.487 315.733 179.2V187.733ZM349.866 298.667H332.8V204.8H349.866V298.667ZM341.333 384C331.907 384 324.266 376.359 324.266 366.933H358.4C358.4 376.359 350.759 384 341.333 384ZM375.466 341.333C375.466 346.046 371.646 349.867 366.933 349.867H315.733C311.02 349.867 307.2 346.046 307.2 341.333V324.267C307.2 319.554 311.02 315.733 315.733 315.733H366.933C371.646 315.733 375.466 319.554 375.466 324.267V341.333ZM435.2 172.723C435.731 197.501 427.022 221.589 410.769 240.299C405.416 245.787 399.601 250.803 393.386 255.292C383.325 262.301 374.403 270.817 366.933 280.542V204.8H375.466C389.605 204.8 401.066 193.338 401.066 179.2C401.066 165.062 389.605 153.6 375.466 153.6C361.328 153.6 349.866 165.062 349.866 179.2V187.733H332.8V179.2C332.8 165.062 321.338 153.6 307.2 153.6C293.061 153.6 281.6 165.062 281.6 179.2C281.6 193.338 293.061 204.8 307.2 204.8H315.733V280.542C308.277 270.822 299.369 262.308 289.322 255.3C283.105 250.808 277.287 245.789 271.931 240.299C255.662 221.597 246.94 197.506 247.466 172.723C248.32 120.721 291.259 76.8 341.333 76.8C391.407 76.8 434.389 120.721 435.2 172.723ZM366.933 187.733V179.2C366.933 174.487 370.753 170.667 375.466 170.667C380.179 170.667 384 174.487 384 179.2C384 183.913 380.179 187.733 375.466 187.733H366.933Z" fill="white"/>
<path d="M477.866 179.2H503.466C508.179 179.2 512 175.379 512 170.667C512 165.954 508.179 162.133 503.466 162.133H477.866C473.154 162.133 469.333 165.954 469.333 170.667C469.333 175.379 473.154 179.2 477.866 179.2Z" fill="white"/>
<path d="M437.871 82.6624C440.137 82.6642 442.31 81.7647 443.912 80.1621L462.012 62.0544C464.23 59.9119 465.12 56.7392 464.339 53.7557C463.558 50.7722 461.228 48.4422 458.244 47.6613C455.261 46.8803 452.088 47.77 449.946 49.9883L431.838 68.0875C429.392 70.5272 428.658 74.2008 429.98 77.3928C431.301 80.5847 434.416 82.6651 437.871 82.6624Z" fill="white"/>
<path d="M341.333 42.6667C346.046 42.6667 349.866 38.8462 349.866 34.1333V8.53333C349.866 3.8205 346.046 0 341.333 0C336.62 0 332.8 3.8205 332.8 8.53333V34.1333C332.8 38.8462 336.62 42.6667 341.333 42.6667Z" fill="white"/>
<path d="M250.829 80.1621C252.431 78.5616 253.331 76.3896 253.331 74.1248C253.331 71.86 252.431 69.6881 250.829 68.0875L232.721 49.9883C230.578 47.77 227.406 46.8803 224.422 47.6613C221.439 48.4422 219.109 50.7722 218.328 53.7557C217.547 56.7392 218.436 59.9119 220.655 62.0544L238.754 80.1621C240.354 81.7645 242.526 82.6648 244.791 82.6648C247.056 82.6648 249.228 81.7645 250.829 80.1621Z" fill="white"/>
<path d="M179.2 162.133C174.487 162.133 170.667 165.954 170.667 170.667C170.667 175.379 174.487 179.2 179.2 179.2H204.8C209.513 179.2 213.333 175.379 213.333 170.667C213.333 165.954 209.513 162.133 204.8 162.133H179.2Z" fill="white"/>
</g>
<defs>
<clipPath id="clip0">
<rect width="512" height="512" fill="white"/>
</clipPath>
</defs>
</svg>
