<svg width="422" height="422" viewBox="0 0 422 422" fill="none" xmlns="http://www.w3.org/2000/svg">
<g clip-path="url(#clip0)">
<path d="M400.491 291.098L341.626 254.122L400.49 217.151C402.675 215.779 404.001 213.38 404.001 210.8C404.001 208.22 402.675 205.821 400.49 204.448L341.625 167.471L400.487 130.498C402.672 129.125 403.998 126.727 403.998 124.147C403.998 121.567 402.672 119.168 400.487 117.796L214.783 1.149C212.345 -0.383 209.243 -0.383 206.804 1.149L21.0999 117.796C18.9149 119.169 17.5889 121.567 17.5889 124.147C17.5889 126.727 18.9149 129.126 21.0999 130.498L79.9609 167.47L21.1019 204.448C18.9169 205.821 17.5919 208.219 17.5919 210.799C17.5919 213.379 18.9179 215.778 21.1029 217.15L79.9619 254.12L21.1029 291.099C18.9179 292.471 17.5929 294.87 17.5929 297.45C17.5929 300.03 18.9189 302.429 21.1039 303.801L206.804 420.441C208.024 421.207 209.408 421.59 210.793 421.59C212.178 421.59 213.563 421.207 214.782 420.441L400.491 303.8C402.676 302.428 404.002 300.029 404.002 297.449C404.002 294.869 402.676 292.47 400.491 291.098ZM39.1889 124.147L210.794 16.357L382.398 124.147L210.794 231.937L39.1889 124.147ZM39.1909 210.798L94.0599 176.327L206.804 247.145C208.023 247.911 209.408 248.294 210.793 248.294C212.178 248.294 213.563 247.911 214.782 247.145L327.524 176.328L382.399 210.798L210.792 318.582L39.1909 210.798ZM210.792 405.232L39.1909 297.448L94.0609 262.976L206.803 333.79C208.023 334.556 209.407 334.939 210.792 334.939C212.177 334.939 213.562 334.556 214.781 333.79L327.525 262.978L382.401 297.448L210.792 405.232Z" fill="white"/>
</g>
<defs>
<clipPath id="clip0">
<rect width="421.59" height="421.59" fill="white"/>
</clipPath>
</defs>
</svg>
