<svg width="22" height="22" viewBox="0 0 22 22" fill="none" xmlns="http://www.w3.org/2000/svg">
<path d="M12.4785 5C12.4785 2.79086 14.2694 1 16.4785 1H21.0002V5.52174C21.0002 7.73088 19.2094 9.52174 17.0002 9.52174H16.4785C14.2694 9.52174 12.4785 7.73088 12.4785 5.52174V5Z" stroke="black" stroke-width="2"/>
<path d="M17 12.4783C19.2091 12.4783 21 14.2691 21 16.4783L21 21L16.4783 21C14.2691 21 12.4783 19.2091 12.4783 17L12.4783 16.4783C12.4783 14.2691 14.2691 12.4783 16.4783 12.4783L17 12.4783Z" stroke="black" stroke-width="2"/>
<path d="M5 9.52173C2.79086 9.52173 1 7.73087 1 5.52173L1 0.99999L5.52174 0.99999C7.73088 0.99999 9.52174 2.79085 9.52174 4.99999L9.52174 5.52173C9.52174 7.73087 7.73088 9.52173 5.52174 9.52173L5 9.52173Z" stroke="black" stroke-width="2"/>
<path d="M9.52148 17C9.52148 19.2091 7.73062 21 5.52149 21L0.999745 21L0.999745 16.4783C0.999745 14.2691 2.79061 12.4783 4.99974 12.4783L5.52148 12.4783C7.73062 12.4783 9.52149 14.2691 9.52148 16.4783L9.52148 17Z" stroke="black" stroke-width="2"/>
</svg>
