<svg width="512" height="512" viewBox="0 0 512 512" fill="none" xmlns="http://www.w3.org/2000/svg">
<g clip-path="url(#clip0)">
<path d="M478.473 22.633H33.527C15.04 22.633 0 37.673 0 56.159V455.841C0 474.327 15.04 489.367 33.527 489.367H478.473C496.96 489.367 512 474.327 512 455.841V56.159C512 37.673 496.96 22.633 478.473 22.633V22.633ZM20 56.159C20 48.701 26.068 42.633 33.527 42.633H478.473C485.932 42.633 492 48.701 492 56.159V106.664H20V56.159ZM492 455.841C492 463.299 485.932 469.367 478.473 469.367H33.527C26.068 469.367 20 463.299 20 455.841V126.664H492V455.841Z" fill="white"/>
<path d="M444.843 64.648H441.149C435.626 64.648 431.149 69.126 431.149 74.648C431.149 80.17 435.626 84.648 441.149 84.648H444.843C450.366 84.648 454.843 80.17 454.843 74.648C454.843 69.126 450.366 64.648 444.843 64.648Z" fill="white"/>
<path d="M382.794 64.648H379.1C373.577 64.648 369.1 69.126 369.1 74.648C369.1 80.17 373.577 84.648 379.1 84.648H382.794C388.317 84.648 392.794 80.17 392.794 74.648C392.794 69.126 388.317 64.648 382.794 64.648Z" fill="white"/>
<path d="M320.746 64.648H317.052C311.529 64.648 307.052 69.126 307.052 74.648C307.052 80.17 311.529 84.648 317.052 84.648H320.746C326.269 84.648 330.746 80.17 330.746 74.648C330.746 69.126 326.269 64.648 320.746 64.648Z" fill="white"/>
<path d="M137.468 64.648H67.1572C61.6342 64.648 57.1572 69.126 57.1572 74.648C57.1572 80.17 61.6342 84.648 67.1572 84.648H137.468C142.991 84.648 147.468 80.17 147.468 74.648C147.468 69.126 142.991 64.648 137.468 64.648Z" fill="white"/>
<path d="M54.3148 243.353V353.442C54.3148 357.115 56.3278 360.492 59.5588 362.239L151.17 411.775C151.197 411.79 151.235 411.81 151.283 411.834C154.158 413.293 157.558 413.312 160.479 411.949C160.65 411.869 160.775 411.809 160.836 411.775L252.447 362.239C255.677 360.493 257.691 357.116 257.691 353.443V243.359C257.691 243.353 257.691 243.347 257.691 243.341C257.737 239.753 255.847 236.41 252.761 234.58C252.598 234.484 252.501 234.426 252.492 234.421L160.804 184.239C157.812 182.602 154.194 182.602 151.201 184.239L59.5128 234.421L59.5088 234.423C56.2648 236.206 54.2668 239.632 54.3128 243.334L54.3148 243.353ZM74.3148 260.066L146.003 299.301V386.244L74.3148 347.48V260.066ZM166.004 386.244V299.301L237.692 260.066V347.48L166.004 386.244ZM226.863 243.193L156.004 281.974L85.1448 243.193L156.004 204.411L226.863 243.193Z" fill="white"/>
<path d="M302.664 297.851H447.685C453.208 297.851 457.685 293.373 457.685 287.851V243.194C457.685 237.672 453.208 233.194 447.685 233.194H302.664C297.141 233.194 292.664 237.672 292.664 243.194V287.851C292.664 293.373 297.141 297.851 302.664 297.851ZM312.664 253.193H437.685V277.85H312.664V253.193Z" fill="white"/>
<path d="M302.664 350.957H447.685C453.208 350.957 457.685 346.479 457.685 340.957C457.685 335.435 453.208 330.957 447.685 330.957H302.664C297.141 330.957 292.664 335.435 292.664 340.957C292.664 346.479 297.141 350.957 302.664 350.957Z" fill="white"/>
</g>
<defs>
<clipPath id="clip0">
<rect width="512" height="512" fill="white"/>
</clipPath>
</defs>
</svg>
