<svg id="Capa_1" enable-background="new 0 0 512 512" height="512" viewBox="0 0 512 512" width="512" xmlns="http://www.w3.org/2000/svg"><g><path d="m478.473 22.633h-444.946c-18.487 0-33.527 15.04-33.527 33.526v399.682c0 18.486 15.04 33.526 33.527 33.526h444.946c18.487 0 33.527-15.04 33.527-33.526v-399.682c0-18.486-15.04-33.526-33.527-33.526zm-458.473 33.526c0-7.458 6.068-13.526 13.527-13.526h444.946c7.459 0 13.527 6.068 13.527 13.526v50.505h-472zm472 399.682c0 7.458-6.068 13.526-13.527 13.526h-444.946c-7.459 0-13.527-6.068-13.527-13.526v-329.177h472z"/><path d="m444.843 64.648h-3.694c-5.523 0-10 4.478-10 10s4.477 10 10 10h3.694c5.523 0 10-4.478 10-10s-4.477-10-10-10z"/><path d="m382.794 64.648h-3.694c-5.523 0-10 4.478-10 10s4.477 10 10 10h3.694c5.523 0 10-4.478 10-10s-4.477-10-10-10z"/><path d="m320.746 64.648h-3.694c-5.523 0-10 4.478-10 10s4.477 10 10 10h3.694c5.523 0 10-4.478 10-10s-4.477-10-10-10z"/><path d="m137.468 64.648h-70.311c-5.523 0-10 4.478-10 10s4.477 10 10 10h70.311c5.523 0 10-4.478 10-10s-4.477-10-10-10z"/><path d="m54.315 243.353v110.089c0 3.673 2.013 7.05 5.244 8.797l91.611 49.536c.027.015.065.035.113.059 2.875 1.459 6.275 1.478 9.196.115.171-.08.296-.14.357-.174l91.611-49.536c3.23-1.746 5.244-5.123 5.244-8.796v-110.084c0-.006 0-.012 0-.018.046-3.588-1.844-6.931-4.93-8.761-.163-.096-.26-.154-.269-.159l-91.688-50.182c-2.992-1.637-6.61-1.637-9.603 0l-91.688 50.182-.004.002c-3.244 1.783-5.242 5.209-5.196 8.911zm20 16.713 71.688 39.235v86.943l-71.688-38.764zm91.689 126.178v-86.943l71.688-39.235v87.414zm60.859-143.051-70.859 38.781-70.859-38.781 70.859-38.782z"/><path d="m302.664 297.851h145.021c5.523 0 10-4.478 10-10v-44.657c0-5.522-4.477-10-10-10h-145.021c-5.523 0-10 4.478-10 10v44.657c0 5.522 4.477 10 10 10zm10-44.658h125.021v24.657h-125.021z"/><path d="m302.664 350.957h145.021c5.523 0 10-4.478 10-10s-4.477-10-10-10h-145.021c-5.523 0-10 4.478-10 10s4.477 10 10 10z"/></g></svg>